<?xml version="1.0" encoding="UTF-8" standalone="no"?>
<!DOCTYPE svg PUBLIC "-//W3C//DTD SVG 1.1//EN" "http://www.w3.org/Graphics/SVG/1.1/DTD/svg11.dtd">
<svg width="100%" height="100%" viewBox="0 0 1280 720" version="1.1" xmlns="http://www.w3.org/2000/svg" xmlns:xlink="http://www.w3.org/1999/xlink" xml:space="preserve" xmlns:serif="http://www.serif.com/" style="fill-rule:evenodd;clip-rule:evenodd;stroke-linejoin:round;stroke-miterlimit:2;">
    <g transform="matrix(1.238589,0,0,1.238589,-69.831677,-106.941139)">
        <g id="g14" transform="matrix(7.600455,0,0,7.600455,63.78117,109.41032)">
            <path id="path2" d="M61.036,28.263C58.145,28.263 55.798,30.613 55.798,33.501C55.798,36.392 58.146,38.743 61.036,38.743C63.925,38.743 66.274,36.391 66.274,33.501C66.274,30.613 63.924,28.263 61.036,28.263Z" style="fill-rule:nonzero;"/>
            <path id="path3" d="M19.814,28.263C16.925,28.263 14.576,30.613 14.576,33.501C14.576,36.392 16.926,38.743 19.814,38.743C22.704,38.743 25.051,36.391 25.051,33.501C25.052,30.613 22.704,28.263 19.814,28.263Z" style="fill-rule:nonzero;"/>
            <path id="path4" d="M6.151,28.263C3.26,28.263 0.91,30.613 0.91,33.501C0.91,36.392 3.261,38.743 6.151,38.743C9.038,38.743 11.385,36.391 11.385,33.501C11.386,30.613 9.038,28.263 6.151,28.263Z" style="fill-rule:nonzero;"/>
            <g id="path31" serif:id="path3" transform="matrix(1,0,0,1,0,12.323786)">
                <path d="M19.814,28.263C16.925,28.263 14.576,30.613 14.576,33.501C14.576,36.392 16.926,38.743 19.814,38.743C22.704,38.743 25.051,36.391 25.051,33.501C25.052,30.613 22.704,28.263 19.814,28.263Z" style="fill-rule:nonzero;"/>
            </g>
            <g id="path41" serif:id="path4" transform="matrix(1,0,0,1,0,12.323786)">
                <path d="M6.151,28.263C3.26,28.263 0.91,30.613 0.91,33.501C0.91,36.392 3.261,38.743 6.151,38.743C9.038,38.743 11.385,36.391 11.385,33.501C11.386,30.613 9.038,28.263 6.151,28.263Z" style="fill-rule:nonzero;"/>
            </g>
            <path id="path6" d="M61.036,14.373C58.145,14.373 55.798,16.724 55.798,19.614C55.798,22.502 58.146,24.852 61.036,24.852C63.925,24.852 66.274,22.502 66.274,19.614C66.274,16.724 63.924,14.373 61.036,14.373Z" style="fill-rule:nonzero;"/>
            <path id="path7" d="M47.372,14.373C44.481,14.373 42.13,16.724 42.13,19.614C42.13,22.502 44.482,24.852 47.372,24.852C50.259,24.852 52.606,22.502 52.606,19.614C52.606,16.724 50.258,14.373 47.372,14.373Z" style="fill-rule:nonzero;"/>
            <path id="path8" d="M33.48,14.373C30.591,14.373 28.241,16.724 28.241,19.614C28.241,22.502 30.592,24.852 33.48,24.852C36.37,24.852 38.719,22.502 38.719,19.614C38.72,16.724 36.37,14.373 33.48,14.373Z" style="fill-rule:nonzero;"/>
            <path id="path9" d="M19.814,14.373C16.925,14.373 14.576,16.724 14.576,19.614C14.576,22.502 16.926,24.852 19.814,24.852C22.704,24.852 25.051,22.502 25.051,19.614C25.052,16.724 22.704,14.373 19.814,14.373Z" style="fill-rule:nonzero;"/>
            <path id="path11" d="M47.372,0.484C44.481,0.484 42.13,2.834 42.13,5.722C42.13,8.612 44.482,10.962 47.372,10.962C50.259,10.962 52.606,8.611 52.606,5.722C52.606,2.834 50.258,0.484 47.372,0.484Z" style="fill-rule:nonzero;"/>
            <path id="path12" d="M33.48,0.484C30.591,0.484 28.241,2.834 28.241,5.722C28.241,8.612 30.592,10.962 33.48,10.962C36.37,10.962 38.719,8.611 38.719,5.722C38.72,2.834 36.37,0.484 33.48,0.484Z" style="fill-rule:nonzero;"/>
            <path id="path13" d="M19.814,0.484C16.925,0.484 14.576,2.834 14.576,5.722C14.576,8.612 16.926,10.962 19.814,10.962C22.704,10.962 25.051,8.611 25.051,5.722C25.052,2.834 22.704,0.484 19.814,0.484Z" style="fill-rule:nonzero;"/>
            <path id="path14" d="M6.151,14.373C3.26,14.373 0.91,16.724 0.91,19.614C0.91,22.502 3.261,24.852 6.151,24.852C9.038,24.852 11.385,22.502 11.385,19.614C11.386,16.724 9.038,14.373 6.151,14.373Z" style="fill-rule:nonzero;"/>
        </g>
        <g id="g141" serif:id="g14" transform="matrix(7.600455,0,0,7.600455,468.344708,106.27417)">
            <g id="path1" transform="matrix(1,0,0,1,-0.056344,0.412627)">
                <path d="M74.702,28.263C71.811,28.263 69.462,30.613 69.462,33.501C69.462,36.392 71.812,38.743 74.702,38.743C77.591,38.743 79.94,36.391 79.94,33.501C79.94,30.613 77.59,28.263 74.702,28.263Z" style="fill-rule:nonzero;"/>
            </g>
            <g id="path21" serif:id="path2" transform="matrix(1,0,0,1,-0.056344,0.412627)">
                <path d="M61.036,28.263C58.145,28.263 55.798,30.613 55.798,33.501C55.798,36.392 58.146,38.743 61.036,38.743C63.925,38.743 66.274,36.391 66.274,33.501C66.274,30.613 63.924,28.263 61.036,28.263Z" style="fill-rule:nonzero;"/>
            </g>
            <g id="path15" serif:id="path1" transform="matrix(1,0,0,1,-0.056344,12.296275)">
                <path d="M74.702,28.263C71.811,28.263 69.462,30.613 69.462,33.501C69.462,36.392 71.812,38.743 74.702,38.743C77.591,38.743 79.94,36.391 79.94,33.501C79.94,30.613 77.59,28.263 74.702,28.263Z" style="fill-rule:nonzero;"/>
            </g>
            <g id="path22" serif:id="path2" transform="matrix(1,0,0,1,-0.056344,12.296275)">
                <path d="M61.036,28.263C58.145,28.263 55.798,30.613 55.798,33.501C55.798,36.392 58.146,38.743 61.036,38.743C63.925,38.743 66.274,36.391 66.274,33.501C66.274,30.613 63.924,28.263 61.036,28.263Z" style="fill-rule:nonzero;"/>
            </g>
            <g id="path32" serif:id="path3" transform="matrix(1,0,0,1,-0.056344,0.412627)">
                <path d="M19.814,28.263C16.925,28.263 14.576,30.613 14.576,33.501C14.576,36.392 16.926,38.743 19.814,38.743C22.704,38.743 25.051,36.391 25.051,33.501C25.052,30.613 22.704,28.263 19.814,28.263Z" style="fill-rule:nonzero;"/>
            </g>
            <g id="path5" transform="matrix(1,0,0,1,-0.056344,0.412627)">
                <path d="M74.702,24.852C77.591,24.852 79.94,22.502 79.94,19.614C79.94,16.724 77.59,14.373 74.702,14.373C71.811,14.373 69.462,16.724 69.462,19.614C69.461,22.502 71.811,24.852 74.702,24.852Z" style="fill-rule:nonzero;"/>
            </g>
            <g id="path61" serif:id="path6" transform="matrix(1,0,0,1,-0.056344,0.412627)">
                <path d="M61.036,14.373C58.145,14.373 55.798,16.724 55.798,19.614C55.798,22.502 58.146,24.852 61.036,24.852C63.925,24.852 66.274,22.502 66.274,19.614C66.274,16.724 63.924,14.373 61.036,14.373Z" style="fill-rule:nonzero;"/>
            </g>
            <g id="path71" serif:id="path7" transform="matrix(1,0,0,1,-0.056344,0.412627)">
                <path d="M47.372,14.373C44.481,14.373 42.13,16.724 42.13,19.614C42.13,22.502 44.482,24.852 47.372,24.852C50.259,24.852 52.606,22.502 52.606,19.614C52.606,16.724 50.258,14.373 47.372,14.373Z" style="fill-rule:nonzero;"/>
            </g>
            <g id="path81" serif:id="path8" transform="matrix(1,0,0,1,-0.056344,0.412627)">
                <path d="M33.48,14.373C30.591,14.373 28.241,16.724 28.241,19.614C28.241,22.502 30.592,24.852 33.48,24.852C36.37,24.852 38.719,22.502 38.719,19.614C38.72,16.724 36.37,14.373 33.48,14.373Z" style="fill-rule:nonzero;"/>
            </g>
            <g id="path91" serif:id="path9" transform="matrix(1,0,0,1,-0.056344,0.412627)">
                <path d="M19.814,14.373C16.925,14.373 14.576,16.724 14.576,19.614C14.576,22.502 16.926,24.852 19.814,24.852C22.704,24.852 25.051,22.502 25.051,19.614C25.052,16.724 22.704,14.373 19.814,14.373Z" style="fill-rule:nonzero;"/>
            </g>
            <g id="path10" transform="matrix(1,0,0,1,-0.056344,0.412627)">
                <path d="M61.036,0.484C58.145,0.484 55.798,2.834 55.798,5.722C55.798,8.612 58.146,10.962 61.036,10.962C63.925,10.962 66.274,8.611 66.274,5.722C66.274,2.834 63.924,0.484 61.036,0.484Z" style="fill-rule:nonzero;"/>
            </g>
            <g id="path111" serif:id="path11" transform="matrix(1,0,0,1,-0.056344,0.412627)">
                <path d="M47.372,0.484C44.481,0.484 42.13,2.834 42.13,5.722C42.13,8.612 44.482,10.962 47.372,10.962C50.259,10.962 52.606,8.611 52.606,5.722C52.606,2.834 50.258,0.484 47.372,0.484Z" style="fill-rule:nonzero;"/>
            </g>
            <g id="path121" serif:id="path12" transform="matrix(1,0,0,1,-0.056344,0.412627)">
                <path d="M33.48,0.484C30.591,0.484 28.241,2.834 28.241,5.722C28.241,8.612 30.592,10.962 33.48,10.962C36.37,10.962 38.719,8.611 38.719,5.722C38.72,2.834 36.37,0.484 33.48,0.484Z" style="fill-rule:nonzero;"/>
            </g>
        </g>
    </g>
    <g id="g20" transform="matrix(8.729537,0,0,8.729537,561.485344,158.585058)">
        <path id="path151" serif:id="path15" d="M18.72,44.909L16.124,44.909C15.96,44.909 15.825,45.042 15.825,45.206L15.825,59.968C15.825,60.132 15.96,60.266 16.124,60.266L18.72,60.266C18.88,60.266 19.015,60.13 19.015,59.968L19.015,45.206C19.015,45.045 18.88,44.909 18.72,44.909Z" style="fill-rule:nonzero;"/>
        <path id="path16" d="M10.853,52.233C12.015,51.461 12.582,50.403 12.582,49.001L12.582,48.96C12.582,47.898 12.228,47.028 11.504,46.303C10.594,45.391 9.186,44.909 7.434,44.909L0.987,44.909C0.823,44.909 0.688,45.042 0.688,45.206L0.688,59.968C0.688,60.132 0.823,60.266 0.987,60.266L7.643,60.266C11.248,60.266 13.403,58.641 13.403,55.919L13.403,55.876C13.403,54.14 12.593,52.982 10.853,52.233ZM7.665,57.372L3.833,57.372L3.833,53.917L7.476,53.917C8.726,53.917 10.216,54.21 10.216,55.603L10.216,55.646C10.216,57.147 8.618,57.372 7.665,57.372ZM3.833,51.13L3.833,47.802L7.095,47.802C8.554,47.802 9.392,48.378 9.392,49.382L9.392,49.423C9.392,50.908 7.835,51.13 6.906,51.13L3.833,51.13Z" style="fill-rule:nonzero;"/>
        <path id="path17" d="M33.456,44.909L21.479,44.909C21.317,44.909 21.184,45.042 21.184,45.206L21.184,47.61C21.184,47.773 21.317,47.905 21.479,47.905L25.862,47.905L25.862,59.967C25.862,60.131 25.997,60.265 26.161,60.265L28.774,60.265C28.938,60.265 29.073,60.131 29.073,59.967L29.073,47.905L33.456,47.905C33.62,47.905 33.753,47.773 33.753,47.61L33.753,45.206C33.753,45.039 33.622,44.909 33.456,44.909Z" style="fill-rule:nonzero;"/>
        <path id="path18" d="M57.772,44.909L55.049,44.909C54.92,44.909 54.805,44.993 54.768,45.113L51.522,55.19L48.182,45.074C48.143,44.952 48.028,44.868 47.899,44.868L45.704,44.868C45.575,44.868 45.462,44.949 45.425,45.069L42.083,55.193L38.839,45.112C38.798,44.99 38.685,44.909 38.558,44.909L35.755,44.909C35.657,44.909 35.573,44.951 35.505,45.038C35.452,45.114 35.441,45.217 35.474,45.303L40.619,60.175C40.664,60.294 40.773,60.37 40.898,60.37L43.134,60.37C43.259,60.37 43.372,60.291 43.415,60.171L46.761,50.383L50.105,60.17C50.146,60.288 50.261,60.37 50.388,60.37L52.624,60.37C52.749,60.37 52.864,60.289 52.899,60.179L58.049,45.299C58.08,45.204 58.065,45.105 58.004,45.025C57.948,44.952 57.862,44.909 57.772,44.909Z" style="fill-rule:nonzero;"/>
        <path id="path19" d="M63.17,44.909L60.576,44.909C60.414,44.909 60.281,45.042 60.281,45.206L60.281,59.968C60.281,60.132 60.414,60.266 60.576,60.266L63.17,60.266C63.332,60.266 63.467,60.132 63.467,59.968L63.467,45.206C63.467,45.042 63.333,44.909 63.17,44.909Z" style="fill-rule:nonzero;"/>
        <path id="path20" d="M79.981,51.427L73.696,51.427C73.534,51.427 73.401,51.559 73.401,51.722L73.401,53.98C73.401,54.144 73.534,54.277 73.696,54.277L77.175,54.277L77.175,56.589C76.286,57.208 75.095,57.563 73.907,57.563C71.128,57.563 69.186,55.517 69.186,52.588L69.186,52.544C69.186,49.835 71.202,47.63 73.676,47.63C75.481,47.63 76.522,48.209 77.619,49.146C77.67,49.187 77.721,49.21 77.849,49.212C77.908,49.205 77.988,49.173 78.033,49.111L79.679,47.145C79.73,47.086 79.755,47.006 79.749,46.922C79.739,46.846 79.702,46.777 79.645,46.731C77.907,45.256 76.206,44.656 73.778,44.656C69.344,44.656 65.87,48.139 65.87,52.588L65.87,52.628C65.87,57.274 69.14,60.517 73.823,60.517C76.786,60.517 78.911,59.23 80.173,58.148C80.237,58.093 80.277,58.007 80.277,57.924L80.277,51.722C80.278,51.559 80.145,51.427 79.981,51.427Z" style="fill-rule:nonzero;"/>
    </g>
    <g transform="matrix(15.65572,0,0,15.65572,-1357.467276,-7971.790079)">
        <g transform="matrix(12,0,0,12,120.788435,552.898893)">
        </g>
        <text x="87.62px" y="552.899px" style="font-family:'AbletonSans-Light', 'Ableton Sans';font-weight:300;font-size:12px;">MOVE</text>
    </g>
</svg>
